<svg width="640" height="220" viewBox="0 0 640 220" xmlns="http://www.w3.org/2000/svg">
<defs>
  <radialGradient id="bgH" cx="35%" cy="30%" r="85%">
    <stop offset="0%" stop-color="#12ab54"/><stop offset="100%" stop-color="#0a9c48"/>
  </radialGradient>
  <linearGradient id="waveH" x1="0%" y1="30%" x2="100%" y2="0%">
    <stop offset="0%" stop-color="#00A8E4"/><stop offset="100%" stop-color="#3FCBF5"/>
  </linearGradient>
  <clipPath id="circleClipHz"><circle cx="100" cy="100" r="94"/></clipPath>
</defs>

<g transform="translate(10,10)">
  <circle cx="100" cy="100" r="96" fill="url(#bgH)" stroke="#075c30" stroke-width="3"/>
  <g clip-path="url(#circleClipHz)">
    <path d="M 100 190 A 90 90 0 1 1 181.6 138.1" fill="none" stroke="#054C71" stroke-width="6.5" stroke-linecap="round"/>
    <path d="M 86.3 177.8 A 79 79 0 1 1 160.5 150.8" fill="none" stroke="#054C71" stroke-width="8" stroke-linecap="round"/>
    <text x="100" y="84" text-anchor="middle" font-family="Poppins, Arial, sans-serif" font-weight="700" font-size="29" fill="#0B2B22">SR</text>
    <text x="100" y="107" text-anchor="middle" font-family="Poppins, Arial, sans-serif" font-weight="500" font-size="19" fill="#0B2B22">Laundry</text>
    <text x="100" y="125" text-anchor="middle" font-family="Poppins, Arial, sans-serif" font-weight="700" font-size="9" letter-spacing="1" fill="#0B2B22">DRY CLEAN SERVICE</text>
    <path d="M 15 150 C 40 135 55 165 75 152 C 95 140 110 120 130 125 C 150 130 165 120 190 132 L 190 210 L 15 210 Z" fill="url(#waveH)"/>
    <circle cx="35" cy="146" r="3.5" fill="#ffffff" opacity="0.95"/>
    <circle cx="70" cy="135" r="2" fill="#ffffff" opacity="0.85"/>
    <circle cx="145" cy="124" r="3" fill="#ffffff" opacity="0.9"/>
  </g>
</g>

<text x="230" y="98" font-family="Poppins, Arial, sans-serif" font-weight="700" font-size="26" fill="#0a8f42">SR Laundry</text>
<text x="230" y="128" font-family="Poppins, Arial, sans-serif" font-weight="600" font-size="15" letter-spacing="2" fill="#034E6D">DRY CLEAN SERVICE</text>
<line x1="230" y1="148" x2="600" y2="148" stroke="#e0ddd2" stroke-width="1.5"/>
<text x="230" y="176" font-family="Arial, sans-serif" font-size="14" fill="#8a9690">Dobi Kita Dan Jahit 2 · Cyberjaya, Selangor</text>
</svg>
